<?xml version="1.0" encoding="utf-8"?>
<svg version="1.1" xmlns:xlink="http://www.w3.org/1999/xlink" width="22px" height="22px" xmlns="http://www.w3.org/2000/svg">
  <g transform="matrix(1 0 0 1 -1727 -1477 )">
    <path d="M 21.4814814814815 16.4444444444444  C 21.8271604938272 16.7901234567901  22 17.2098765432099  22 17.7037037037037  C 22 18.1975308641975  21.8271604938272 18.6172839506173  21.4814814814815 18.962962962963  L 18.962962962963 21.4814814814815  C 18.6172839506173 21.8271604938272  18.1975308641975 22  17.7037037037037 22  C 17.2098765432099 22  16.7901234567901 21.8271604938272  16.4444444444444 21.4814814814815  L 11 16.037037037037  L 5.55555555555556 21.4814814814815  C 5.20987654320988 21.8271604938272  4.79012345679012 22  4.2962962962963 22  C 3.80246913580247 22  3.38271604938272 21.8271604938272  3.03703703703704 21.4814814814815  L 0.518518518518518 18.962962962963  C 0.17283950617284 18.6172839506173  0 18.1975308641975  0 17.7037037037037  C 0 17.2098765432099  0.17283950617284 16.7901234567901  0.518518518518518 16.4444444444444  L 5.96296296296296 11  L 0.518518518518518 5.55555555555555  C 0.17283950617284 5.20987654320987  0 4.79012345679012  0 4.2962962962963  C 0 3.80246913580247  0.17283950617284 3.38271604938271  0.518518518518518 3.03703703703704  L 3.03703703703704 0.518518518518519  C 3.38271604938272 0.172839506172839  3.80246913580247 0  4.2962962962963 0  C 4.79012345679012 0  5.20987654320988 0.172839506172839  5.55555555555556 0.518518518518519  L 11 5.96296296296296  L 16.4444444444444 0.518518518518519  C 16.7901234567901 0.172839506172839  17.2098765432099 0  17.7037037037037 0  C 18.1975308641975 0  18.6172839506173 0.172839506172839  18.962962962963 0.518518518518519  L 21.4814814814815 3.03703703703704  C 21.8271604938272 3.38271604938271  22 3.80246913580247  22 4.2962962962963  C 22 4.79012345679012  21.8271604938272 5.20987654320987  21.4814814814815 5.55555555555555  L 16.037037037037 11  L 21.4814814814815 16.4444444444444  Z " fill-rule="nonzero" fill="#000000" stroke="none" transform="matrix(1 0 0 1 1727 1477 )" />
  </g>
</svg>