<?xml version="1.0" encoding="utf-8"?>
<svg version="1.1" xmlns:xlink="http://www.w3.org/1999/xlink" width="13px" height="13px" xmlns="http://www.w3.org/2000/svg">
  <g transform="matrix(1 0 0 1 -3004 -1434 )">
    <path d="M 9.56380208333333 8.80208333333333  C 9.67100694444444 8.69487847222222  9.724609375 8.56510416666667  9.724609375 8.41276041666667  C 9.724609375 8.26605902777778  9.67100694444444 8.13910590277778  9.56380208333333 8.03190104166667  L 8.03190104166667 6.5  L 9.56380208333333 4.96809895833333  C 9.67100694444444 4.86089409722222  9.724609375 4.73394097222222  9.724609375 4.58723958333333  C 9.724609375 4.43489583333333  9.67100694444444 4.30512152777778  9.56380208333333 4.19791666666667  L 8.80208333333333 3.43619791666667  C 8.69487847222222 3.32899305555555  8.56510416666667 3.275390625  8.41276041666667 3.275390625  C 8.26605902777778 3.275390625  8.13910590277778 3.32899305555555  8.03190104166667 3.43619791666667  L 6.5 4.96809895833333  L 4.96809895833333 3.43619791666667  C 4.86089409722222 3.32899305555555  4.73394097222222 3.275390625  4.58723958333333 3.275390625  C 4.43489583333333 3.275390625  4.30512152777778 3.32899305555555  4.19791666666667 3.43619791666667  L 3.43619791666667 4.19791666666667  C 3.32899305555556 4.30512152777778  3.275390625 4.43489583333333  3.275390625 4.58723958333333  C 3.275390625 4.73394097222222  3.32899305555556 4.86089409722222  3.43619791666667 4.96809895833333  L 4.96809895833333 6.5  L 3.43619791666667 8.03190104166667  C 3.32899305555556 8.13910590277778  3.275390625 8.26605902777778  3.275390625 8.41276041666667  C 3.275390625 8.56510416666667  3.32899305555556 8.69487847222222  3.43619791666667 8.80208333333333  L 4.19791666666667 9.56380208333333  C 4.30512152777778 9.67100694444444  4.43489583333333 9.724609375  4.58723958333333 9.724609375  C 4.73394097222222 9.724609375  4.86089409722222 9.67100694444444  4.96809895833333 9.56380208333333  L 6.5 8.03190104166667  L 8.03190104166667 9.56380208333333  C 8.13910590277778 9.67100694444444  8.26605902777778 9.724609375  8.41276041666667 9.724609375  C 8.56510416666667 9.724609375  8.69487847222222 9.67100694444444  8.80208333333333 9.56380208333333  L 9.56380208333333 8.80208333333333  Z M 12.1282552083333 3.2373046875  C 12.7094184027778 4.23318142361111  13 5.32074652777778  13 6.5  C 13 7.67925347222222  12.7094184027778 8.76681857638889  12.1282552083333 9.7626953125  C 11.5470920138889 10.7585720486111  10.7585720486111 11.5470920138889  9.7626953125 12.1282552083333  C 8.76681857638889 12.7094184027778  7.67925347222222 13  6.5 13  C 5.32074652777778 13  4.23318142361111 12.7094184027778  3.2373046875 12.1282552083333  C 2.24142795138889 11.5470920138889  1.45290798611111 10.7585720486111  0.871744791666667 9.7626953125  C 0.290581597222222 8.76681857638889  0 7.67925347222222  0 6.5  C 0 5.32074652777778  0.290581597222222 4.23318142361111  0.871744791666667 3.2373046875  C 1.45290798611111 2.24142795138889  2.24142795138889 1.45290798611111  3.2373046875 0.871744791666666  C 4.23318142361111 0.290581597222221  5.32074652777778 0  6.5 0  C 7.67925347222222 0  8.76681857638889 0.290581597222221  9.7626953125 0.871744791666666  C 10.7585720486111 1.45290798611111  11.5470920138889 2.24142795138889  12.1282552083333 3.2373046875  Z " fill-rule="nonzero" fill="#000000" stroke="none" transform="matrix(1 0 0 1 3004 1434 )" />
  </g>
</svg>