<svg width="4" height="15" xmlns="http://www.w3.org/2000/svg"><path d="M3.708 11.207c.195.2.292.44.292.725v2.045a.998.998 0 01-.292.725A.954.954 0 013 15H1a.954.954 0 01-.708-.298.998.998 0 01-.292-.725v-2.045c0-.284.097-.526.292-.725A.954.954 0 011 10.91h2c.278 0 .514.1.708.298zm0-5.454c.195.199.292.44.292.724v2.046a.998.998 0 01-.292.724.954.954 0 01-.708.298H1a.954.954 0 01-.708-.298A.998.998 0 010 8.523V6.477c0-.284.097-.525.292-.724A.954.954 0 011 5.455h2c.278 0 .514.099.708.298zm0-5.455c.195.2.292.44.292.725v2.045a.998.998 0 01-.292.725A.954.954 0 013 4.09H1a.954.954 0 01-.708-.298A.998.998 0 010 3.068V1.023C0 .739.097.497.292.298A.954.954 0 011 0h2c.278 0 .514.1.708.298z"/></svg>