<svg width="16" height="16" xmlns="http://www.w3.org/2000/svg"><path d="M9.885 9.885c.521-.52.782-1.149.782-1.885a2.57 2.57 0 00-.782-1.885A2.57 2.57 0 008 5.333a2.57 2.57 0 00-1.885.782A2.57 2.57 0 005.333 8c0 .736.26 1.365.782 1.885.52.521 1.149.782 1.885.782a2.57 2.57 0 001.885-.782zm6.032-3.265a.394.394 0 01.083.245v2.312a.402.402 0 01-.083.24.317.317 0 01-.209.135l-1.927.292a6.674 6.674 0 01-.406.948c.243.347.615.826 1.115 1.437.069.084.104.17.104.26s-.031.17-.094.24c-.188.257-.531.632-1.031 1.125-.5.493-.827.74-.98.74a.509.509 0 01-.27-.094l-1.438-1.125a5.86 5.86 0 01-.948.396c-.11.944-.211 1.59-.302 1.937-.048.195-.173.292-.375.292H6.844a.394.394 0 01-.255-.089.309.309 0 01-.12-.223l-.292-1.917a6.438 6.438 0 01-.937-.386L3.77 14.5a.375.375 0 01-.26.094.359.359 0 01-.26-.115c-.875-.791-1.448-1.375-1.719-1.75a.407.407 0 01.01-.479c.105-.146.282-.377.532-.693.25-.316.437-.56.562-.734a5.154 5.154 0 01-.427-1.031L.302 9.51a.328.328 0 01-.219-.13A.394.394 0 010 9.135V6.823c0-.083.028-.163.083-.24a.314.314 0 01.198-.135l1.938-.292c.097-.32.232-.639.406-.958A23.71 23.71 0 001.51 3.76a.391.391 0 01-.104-.25c0-.069.032-.149.094-.24.18-.25.523-.622 1.026-1.119.504-.496.832-.745.984-.745.09 0 .181.035.271.104L5.22 2.625a5.86 5.86 0 01.948-.396c.11-.944.211-1.59.302-1.937C6.517.097 6.642 0 6.844 0h2.312c.097 0 .183.03.255.089a.309.309 0 01.12.224l.292 1.916c.34.111.653.24.937.386L12.24 1.5a.338.338 0 01.25-.094c.09 0 .177.035.26.104.896.827 1.469 1.417 1.719 1.771a.336.336 0 01.073.23.402.402 0 01-.084.239c-.104.146-.28.377-.53.693-.25.316-.438.56-.563.734.18.347.322.688.427 1.02l1.906.293c.09.013.163.057.219.13z"/></svg>