<svg data-name="圖層 1" xmlns="http://www.w3.org/2000/svg" viewBox="0 0 766.91 836.74"><path d="M.21 546.99H766.9v263.3c0 16.08-10.44 26.46-26.53 26.46H26.59c-15.8 0-26.54-10.38-26.55-26q-.08-129.62 0-259.24c-.01-1.33.11-2.64.17-4.52zm242.33 191h202.29c2 0 4 .1 6-.09a12.42 12.42 0 0011.38-12.35c.07-8.09-5.37-12.75-15-12.75H37.65a35.33 35.33 0 00-4 .08 12.7 12.7 0 00-11.18 11.08 12.24 12.24 0 007.52 12.8 26.11 26.11 0 008.79 1.2q101.89.04 203.79 0zM128.1 658.25h92.37c7.78 0 13.32-5.24 13.37-12.36 0-6.83-5.3-12.12-12.83-12.65-1.33-.09-2.66 0-4 0H39.25a34 34 0 00-7.42.63 11.55 11.55 0 00-8.72 8.08c-2.83 8.41 3.19 16.28 12.6 16.29q46.24.04 92.42-.02zM.3 521.33v-83.78h766.32v83.8zM766.9 411.9H.32c-.1-1.66-.29-3.24-.29-4.82 0-17.48-.05-35 0-52.46 0-15.94 10.69-26.43 26.71-26.43h713.47c16.34 0 26.71 10.43 26.72 26.85v51z"/><path d="M590.26 4.48l137 135.53c-4.15 1-7.8 1.94-11.44 2.86-9.65 2.43-19.31 4.81-28.93 7.35-1.92.51-3.31.36-4.53-1.26-.75-1-1.68-1.85-2.65-2.9L560.66 264.33a4.92 4.92 0 00.83 1.05c3.72 2.37 3.5 5.61 2.79 9.5-3.27 17.88-6.23 35.82-9.32 53.73-.14.81-.36 1.6-.68 3l-67.58-66.83c-4.22 4.36-8.2 8.62-12.33 12.72q-29.39 29.22-58.86 58.38-9 8.86-18 17.67a10.52 10.52 0 01-2.15 1.67q-25.23 14.12-50.48 28.19c-.55.31-1.16.5-2.3 1 .53-1.13.78-1.77 1.12-2.35q14.31-24.54 28.66-49.08a12.54 12.54 0 012-2.54q17.71-17.6 35.47-35.14l52.38-51.85c.46-.46.9-1 1.42-1.53l-67.22-66.53c4.37-.76 8.14-1.45 11.92-2.09 16.29-2.74 32.58-5.44 48.85-8.25 1.75-.31 3-.19 4.17 1.23a36.17 36.17 0 003.05 2.92q59.67-58.77 119.33-117.57c-.21-.34-.32-.69-.56-.85-3.59-2.37-3.84-5.34-2.69-9.38 3.28-11.57 6.07-23.27 9.06-34.92.11-.54.36-1.05.72-2z" stroke-miterlimit="10" stroke-width="5"/></svg>