<svg xmlns="http://www.w3.org/2000/svg" xmlns:xlink="http://www.w3.org/1999/xlink" width="11.365" height="16" viewBox="0 0 11.365 16">
  <defs>
    <style>
      .cls-1 {
        fill: url(#linear-gradient);
      }
    </style>
    <linearGradient id="linear-gradient" x1="0.5" x2="0.5" y2="-0.636" gradientUnits="objectBoundingBox">
      <stop offset="0" stop-color="#ed4343"/>
      <stop offset="0" stop-color="#f77a58"/>
      <stop offset="0" stop-color="#fc9963"/>
      <stop offset="1" stop-color="#ffa869"/>
    </linearGradient>
  </defs>
  <path id="Path_1202" data-name="Path 1202" class="cls-1" d="M64.478,1333.321v-.238c0-1.715,0-3.43,0-5.144,0-.681.018-1.362.034-2.043a.663.663,0,0,1,.721-.737c.744-.01,1.489-.008,2.233,0a9.23,9.23,0,0,1,1.04.052.669.669,0,0,1,.631.735c.005,1.1.012,2.207.01,3.311,0,.574-.025,1.147-.027,1.721,0,.739.006,1.478.01,2.217,0,.035,0,.07,0,.115.146.014.286.038.426.039.688,0,1.376,0,2.064,0a1.486,1.486,0,0,1,.229.018.643.643,0,0,1,.493,1.033,6.894,6.894,0,0,1-.484.674q-1.51,1.954-3.025,3.9c-.459.591-.927,1.175-1.389,1.763a.89.89,0,0,1-.577.4.777.777,0,0,1-.74-.32c-.3-.373-.588-.752-.878-1.131q-1.354-1.772-2.7-3.546-.622-.82-1.226-1.653a1.161,1.161,0,0,1-.194-.4c-.111-.463.206-.806.746-.805.573,0,1.146.02,1.72.028C63.883,1333.324,64.17,1333.321,64.478,1333.321Z" transform="translate(72.474 1341.152) rotate(180)"/>
</svg>
