<svg xmlns="http://www.w3.org/2000/svg" width="17.051" height="15.465" viewBox="0 0 17.051 15.465">
  <defs>
    <style>
      .cls-1 {
        fill: #fff;
      }
    </style>
  </defs>
  <g id="Group_1711" data-name="Group 1711" transform="translate(-1384.236 -645.692)">
    <path id="Path_1184" data-name="Path 1184" class="cls-1" d="M1479.935,651.77c-.151-.247-.275-.476-.422-.688a4.74,4.74,0,0,0-1.662-1.5,4.92,4.92,0,0,0-6.265,1.353.19.19,0,0,1-.169.082c-.329,0-.658,0-.987,0h-1.536c.056-.117.092-.2.133-.277a7.45,7.45,0,0,1,2.63-2.9,6.906,6.906,0,0,1,3.535-1.149,7.078,7.078,0,0,1,3.874.959,7.238,7.238,0,0,1,2.533,2.469,6.771,6.771,0,0,1,.706,1.525.177.177,0,0,0,.213.148c.287-.01.575-.008.862,0a1.134,1.134,0,0,1,.322.053.428.428,0,0,1,.294.591,1.361,1.361,0,0,1-.195.355c-.31.414-.631.821-.945,1.233q-.606.792-1.208,1.588a1,1,0,0,1-.507.383.76.76,0,0,1-.862-.324c-.3-.4-.582-.82-.871-1.232-.237-.337-.475-.673-.709-1.013-.166-.242-.331-.485-.487-.734a.6.6,0,0,1-.087-.64.618.618,0,0,1,.584-.283c.355-.008.711,0,1.067,0Z" transform="translate(-82.744 -1)"/>
    <path id="Path_1185" data-name="Path 1185" class="cls-1" d="M1385.9,877.506c-.332,0-.661.007-.99,0a1.4,1.4,0,0,1-.4-.072.369.369,0,0,1-.276-.352.941.941,0,0,1,.1-.344,1.246,1.246,0,0,1,.157-.248q.484-.65.974-1.3c.381-.5.765-1,1.146-1.507a1.021,1.021,0,0,1,.463-.369.749.749,0,0,1,.9.306c.273.376.538.759.805,1.139.287.408.575.816.858,1.227.141.2.278.412.409.623.305.492.081.906-.5.918-.352.007-.7,0-1.055,0h-.143c.023.056.036.094.054.129a4.881,4.881,0,0,0,6.327,2.235,4.9,4.9,0,0,0,1.976-1.541.2.2,0,0,1,.138-.067c.325-.006.651-.006.976,0,.49.005.981.014,1.471.022.014,0,.028,0,.072.01-.161.288-.3.573-.473.837a8.846,8.846,0,0,1-.559.755,6.881,6.881,0,0,1-1.734,1.552,7.011,7.011,0,0,1-7.281.258,7.193,7.193,0,0,1-2.581-2.418,7.3,7.3,0,0,1-.789-1.648C1385.935,877.6,1385.917,877.557,1385.9,877.506Z" transform="translate(0 -221.449)"/>
  </g>
</svg>
