<svg width="16" height="16" xmlns="http://www.w3.org/2000/svg"><path d="M9.813 9.813c.842-.843 1.264-1.858 1.264-3.044s-.422-2.2-1.264-3.043c-.843-.843-1.858-1.264-3.044-1.264s-2.2.421-3.043 1.264-1.264 1.857-1.264 3.043c0 1.186.421 2.2 1.264 3.043s1.857 1.265 3.043 1.265c1.186 0 2.2-.422 3.043-1.264zm5.831 4.09c.237.238.356.526.356.866 0 .334-.122.622-.365.866a1.183 1.183 0 01-.866.365c-.346 0-.634-.122-.865-.365l-3.298-3.289a6.584 6.584 0 01-3.837 1.192 6.652 6.652 0 01-2.63-.533 6.768 6.768 0 01-2.163-1.443A6.768 6.768 0 01.534 9.4 6.652 6.652 0 010 6.769c0-.916.178-1.793.534-2.63a6.768 6.768 0 011.442-2.163A6.768 6.768 0 014.139.534 6.652 6.652 0 016.77 0c.917 0 1.793.178 2.63.534a6.768 6.768 0 012.164 1.442 6.768 6.768 0 011.442 2.163c.356.837.533 1.714.533 2.63 0 1.41-.397 2.69-1.192 3.837l3.298 3.298z"/></svg>