<svg width="18" height="18" xmlns="http://www.w3.org/2000/svg"><path d="M7.114 14.233a.31.31 0 01.092.231c0 .08-.034.161-.102.241l-3.26 3.205a.344.344 0 01-.236.09.37.37 0 01-.235-.09l-3.27-3.215c-.103-.107-.127-.224-.072-.351.054-.134.156-.201.306-.201H2.3V.32A.31.31 0 012.627 0h1.962c.096 0 .174.03.236.09.06.06.092.138.175.231v13.822h1.879c.095 0 .174.03.235.09zm10.794 1.286a.31.31 0 01.092.231v1.929a.31.31 0 01-.327.321H9.169a.31.31 0 01-.327-.321V15.75a.31.31 0 01.327-.321h8.504c.095 0 .174.03.235.09zm-1.963-5.143a.31.31 0 01.092.231v1.929a.31.31 0 01-.327.321H9.17a.31.31 0 01-.327-.321v-1.929a.31.31 0 01.327-.321h6.541c.096 0 .174.03.235.09zm-1.962-5.143a.31.31 0 01.092.231v1.929a.31.31 0 01-.327.321h-4.58a.31.31 0 01-.327-.321V5.464a.31.31 0 01.328-.321h4.579c.095 0 .174.03.235.09zM12.02.09a.31.31 0 01.092.231V2.25a.31.31 0 01-.327.321H9.17a.31.31 0 01-.327-.321V.321A.31.31 0 019.169 0h2.616c.096 0 .174.03.235.09z"/></svg>