<svg width="19" height="19" xmlns="http://www.w3.org/2000/svg"><path d="M12.688 16.381a.327.327 0 01.097.244v2.036a.327.327 0 01-.345.339H9.678a.327.327 0 01-.345-.34v-2.035a.327.327 0 01.345-.34h2.762c.1 0 .184.033.248.096zM7.51 15.024a.327.327 0 01.097.244c0 .085-.035.17-.107.254l-3.442 3.383a.364.364 0 01-.248.095.391.391 0 01-.249-.095L.108 15.512c-.108-.113-.133-.237-.076-.371.058-.142.166-.212.324-.212h2.072V.339A.327.327 0 012.773 0h2.071a.327.327 0 01.345.34v14.589h2.072c.1 0 .184.031.248.095zm7.25-4.071a.327.327 0 01.098.243v2.036a.327.327 0 01-.345.34H9.678a.327.327 0 01-.345-.34v-2.036a.327.327 0 01.345-.339h4.834c.1 0 .183.032.248.096zm2.072-5.429a.327.327 0 01.097.244v2.036a.327.327 0 01-.345.339H9.678a.327.327 0 01-.345-.34V5.769a.327.327 0 01.345-.34h6.905c.1 0 .184.032.248.096zM18.903.095A.327.327 0 0119 .34v2.036a.327.327 0 01-.345.34H9.678a.327.327 0 01-.345-.34V.339A.327.327 0 019.678 0h8.977c.1 0 .183.032.248.095z"/></svg>