<svg width="20" height="20" xmlns="http://www.w3.org/2000/svg"><path d="M16.484 8.477a.795.795 0 00.235-.586.811.811 0 00-.235-.6L15.3 6.12a.8.8 0 00-.585-.248.8.8 0 00-.586.248l-5.313 5.3-2.943-2.943a.8.8 0 00-.586-.248.8.8 0 00-.585.248L3.516 9.648a.811.811 0 00-.235.6c0 .234.078.43.235.585l4.713 4.714a.8.8 0 00.586.247.816.816 0 00.6-.247l7.07-7.07zM18.66 4.98C19.553 6.513 20 8.186 20 10c0 1.814-.447 3.487-1.341 5.02a9.955 9.955 0 01-3.64 3.639C13.488 19.553 11.815 20 10 20s-3.487-.447-5.02-1.341a9.955 9.955 0 01-3.639-3.64C.447 13.488 0 11.815 0 10s.447-3.487 1.341-5.02a9.955 9.955 0 013.64-3.639C6.512.447 8.185 0 10 0s3.487.447 5.02 1.341a9.955 9.955 0 013.639 3.64z"/></svg>