<svg width="27" height="25" xmlns="http://www.w3.org/2000/svg"><path d="M15.281 21.011a.48.48 0 00.143-.353v-2.855a.48.48 0 00-.143-.353.462.462 0 00-.338-.142h-2.886a.462.462 0 00-.338.142.48.48 0 00-.143.353v2.855c0 .14.047.258.143.353a.462.462 0 00.338.143h2.886c.13 0 .243-.048.338-.143zm-.045-5.724a.334.334 0 00.158-.248l.27-6.896a.33.33 0 00-.15-.285c-.13-.11-.25-.166-.36-.166h-3.308c-.11 0-.23.055-.36.166-.1.07-.15.175-.15.315l.255 6.866c0 .1.05.183.15.248.1.065.22.098.36.098h2.782c.14 0 .258-.033.353-.098zM14.477.27c.3.18.536.426.707.737L26.729 22.16c.351.631.341 1.262-.03 1.893-.17.291-.403.521-.699.692-.295.17-.614.255-.954.255H1.954c-.34 0-.659-.085-.954-.255-.296-.17-.529-.401-.7-.692-.37-.63-.38-1.262-.03-1.893L11.817 1.007A1.92 1.92 0 0113.5 0c.35 0 .677.09.977.27z"/></svg>