<svg data-name="圖層 1" xmlns="http://www.w3.org/2000/svg" viewBox="0 0 1193.42 1378.12"><path d="M0 607.65v-49c.31-1.77.73-3.52.92-5.29 1.79-17 2.79-34.17 5.45-51.05a543.93 543.93 0 0151.21-159.13c45-90.13 108.36-164.92 189.39-224.56 91-67 192.46-107.16 305.54-116.69a527.45 527.45 0 01133.31 5.46A549.73 549.73 0 01837.7 57c78.85 39 146.43 92.48 202.87 159.75 89.1 106.19 142.36 227.43 151.65 366.76a506.15 506.15 0 01-9.64 140c-10.75 50.33-24 100-39.22 149.24-4.93 16-10.11 31.91-15.2 48 19.18 14.9 29.1 35.11 33.58 58.33a145.51 145.51 0 01.32 51.65c-5.85 35.38-18.93 67.41-44.34 93.52a483.73 483.73 0 01-71.83 60.12c-19.05 13.18-38.86 25-60.65 33.15a15 15 0 01-7.15.68c-25.66-3.93-51.32-5.25-76.93.06-22.34 4.64-42.28 13.85-56.83 32.34-12.74 16.19-17.92 35.09-18.84 55.22-.45 9.93.56 19.94.77 29.91 0 1.65-.24 4.43-1.13 4.8-8.83 3.58-17.83 6.77-27.61 10.38v-43.46h-16.7v5.73c0 12.83-.09 25.65.06 38.47 0 3.18-.83 4.77-4.12 5.49-15.89 3.47-31.7 7.28-47.6 10.71-5.59 1.2-11.35 1.68-17.64 2.58v-62.87h-17.05v65.62c-11.13 1-21.86 2-32.61 2.87-9.44.77-18.88 1.38-28.33 2.07h-10a56.24 56.24 0 01-.6-5.89c-.05-19.81 0-39.61 0-59.41 0-1.77-.16-3.53-.25-5.34h-16.49c0 12.8-.05 25.27 0 37.73.06 11 .23 21.94.35 32.91h-31c-3.46-.35-6.9-.77-10.36-1-10.41-.77-20.82-1.47-31.87-2.25v-67.41h-17v66.51l-72.75-13.7v-52.71h-17v47.84c-13.39-4.79-26.2-9.29-38.9-14.07-1.08-.41-1.94-2.7-2.05-4.18-.75-10.11-.47-20.36-2-30.32-4.66-29.76-20-52.08-47.76-65-26.34-12.28-54.27-13.18-82.58-11.17-7 .49-13.67 2.26-20.85-1.27a386.92 386.92 0 01-56.31-34c-24.47-17.68-48.22-36.41-68.11-59.21-31-35.51-43.71-77.86-41.61-124.53 1-23 8-44.4 23.09-62.54.86-1 .92-3.45.38-4.84-27.24-70-48.69-141.87-68.44-214.28-9.37-34.37-17-69-19.65-104.63C1.33 619.47.6 613.57 0 607.65zm873.13 17.92c-38.35 1.25-73.64 5.24-108.25 14.08-22.25 5.69-43.94 12.86-63.84 24.76-14.58 8.77-23.4 21.07-26.79 37.77a143.23 143.23 0 00-1.56 46.17 249.42 249.42 0 0028.92 89.52c14.23 26.17 32 49.39 57.4 65.92 10.17 6.61 19.95 13.82 30 20.66 22.51 15.37 44.65 31.33 67.72 45.81 19 12 40.12 19.7 62.94 20 32.4.35 58.71-13.3 78.77-38.26 23.23-28.9 31.57-63.54 35.81-99.42a325.57 325.57 0 00.19-70.75c-3.15-31.41-9.62-62-22.3-91-3.71-8.49-8.41-16.57-13-24.62-9.57-16.67-25.25-25-42.82-30.45-28.04-8.77-56.91-10.03-83.19-10.19zm-522.91 8c-27.54.53-55.91 2.15-83.68 9.12-8.19 2-16.23 4.78-24.25 7.47-25 8.42-39.35 27-48.54 50.76-10.64 27.54-16.16 56.07-18.19 85.42-2.34 33.9-.48 67.5 7.3 100.64 6.44 27.42 16.33 53.37 34.15 75.68 26.21 32.79 66.75 46.14 106.19 34.64 20.87-6.08 39.34-17.11 56.33-30.33 20.35-15.84 40.12-32.43 60.06-48.8 12.23-9.99 25.23-19.27 36.23-30.56 24-24.79 38.22-55.37 47.79-88.13 9-30.93 13.47-62.32 7.18-94.53-4-20.41-14-36.14-33.59-44.55-9-3.86-18-7.84-27.32-10.71-38.69-11.89-78.53-15.37-119.66-16.15zm331.89 483.85c-1-7.57-1.31-15.31-3.1-22.68-7.9-32.39-15.38-64.92-24.65-96.92-9.18-31.69-20.4-62.79-30.57-94.2a45.57 45.57 0 00-13.38-20.05 10.39 10.39 0 00-13.22.05 49 49 0 00-13.37 20.05c-21.21 60.14-40.69 120.81-53.63 183.34-2.57 12.4-3.07 25.33-3.49 38.05-.23 7 5 11.34 12.06 11.14a50.24 50.24 0 0014.06-2.44c17.24-5.66 32.35-15.4 47.13-25.63 3-2.07 4.95-2.07 7.84 0 5.53 4 11.12 8 17.15 11.1 10.88 5.6 21.88 11.42 33.34 15.46 13.18 4.63 24.54 1.79 23.83-17.27z"/></svg>