<svg width="13" height="16" xmlns="http://www.w3.org/2000/svg"><path d="M12.914 11.568c.057.524.086 1.081.086 1.672 0 .757-.212 1.406-.635 1.947-.423.542-.932.813-1.528.813H2.163c-.596 0-1.105-.27-1.528-.813C.212 14.646 0 13.998 0 13.24c0-.59.029-1.148.086-1.672a9.186 9.186 0 01.32-1.584C.562 9.454.76 8.998 1 8.62c.24-.379.559-.688.955-.927.396-.24.852-.36 1.366-.36.887.89 1.947 1.334 3.179 1.334 1.232 0 2.292-.445 3.179-1.334.514 0 .97.12 1.366.36.396.24.714.548.955.927.24.378.438.833.594 1.364.155.532.262 1.06.32 1.584zM9.257 1.172C10.02 1.953 10.4 2.896 10.4 4c0 1.104-.38 2.047-1.143 2.828C8.496 7.61 7.577 8 6.5 8c-1.077 0-1.996-.39-2.757-1.172C2.98 6.047 2.6 5.104 2.6 4c0-1.104.38-2.047 1.143-2.828C4.504.39 5.423 0 6.5 0c1.077 0 1.996.39 2.757 1.172z"/></svg>